HIERARCHY
ROOT Hips
{
	OFFSET -3.958830 18.904000 13.208200
	CHANNELS 6 Xposition Yposition Zposition Zrotation Yrotation Xrotation 
	JOINT LHipJoint
	{
		OFFSET 0.000000 0.000000 0.000000
		CHANNELS 3 Zrotation Yrotation Xrotation
		JOINT LeftUpLeg
		{
			OFFSET 1.800000 -1.400000 0.085000
			CHANNELS 3 Zrotation Yrotation Xrotation
			JOINT LeftLeg
			{
				OFFSET 2.215000 -6.000000 0.000000
				CHANNELS 3 Zrotation Yrotation Xrotation
				JOINT LeftFoot
				{
					OFFSET 2.500000 -6.900000 0.000000
					CHANNELS 3 Zrotation Yrotation Xrotation
					JOINT LeftToeBase
					{
						OFFSET 0.200000 -0.500000 1.950000
						CHANNELS 3 Zrotation Yrotation Xrotation
						End Site
						{
							OFFSET 0.000000 0.000000 0.000000
						}
					}
				}
			}
		}
	}
	JOINT RHipJoint
	{
		OFFSET 0.000000 0.000000 0.000000
		CHANNELS 3 Zrotation Yrotation Xrotation
		JOINT RightUpLeg
		{
			OFFSET -1.800000 -1.400000 0.085000
			CHANNELS 3 Zrotation Yrotation Xrotation
			JOINT RightLeg
			{
				OFFSET -2.215000 -6.000000 0.000000
				CHANNELS 3 Zrotation Yrotation Xrotation
				JOINT RightFoot
				{
					OFFSET -2.500000 -6.900000 0.000000
					CHANNELS 3 Zrotation Yrotation Xrotation
					JOINT RightToeBase
					{
						OFFSET -0.200000 -0.500000 1.950000
						CHANNELS 3 Zrotation Yrotation Xrotation
						End Site
						{
							OFFSET 0.000000 0.000000 0.000000
						}
					}
				}
			}
		}
	}
	JOINT LowerBack
	{
		OFFSET 0.000000 0.000000 0.000000
		CHANNELS 3 Zrotation Yrotation Xrotation
		JOINT Spine
		{
			OFFSET -0.087000 1.940000 -0.288900
			CHANNELS 3 Zrotation Yrotation Xrotation
			JOINT Spine1
			{
				OFFSET 0.000000 1.950000 0.060000
				CHANNELS 3 Zrotation Yrotation Xrotation
				JOINT Neck
				{
					OFFSET 0.000000 0.000000 0.000000
					CHANNELS 3 Zrotation Yrotation Xrotation
					JOINT Neck1
					{
						OFFSET 0.000000 1.600000 0.340000
						CHANNELS 3 Zrotation Yrotation Xrotation
						JOINT Head
						{
							OFFSET 0.000000 1.667000 -0.240000
							CHANNELS 3 Zrotation Yrotation Xrotation
							End Site
							{
								OFFSET 0.000000 0.000000 0.000000
							}
						}
					}
				}
				JOINT LeftShoulder
				{
					OFFSET 0.000000 0.000000 0.000000
					CHANNELS 3 Zrotation Yrotation Xrotation
					JOINT LeftArm
					{
						OFFSET 2.700000 1.550000 -0.730000
						CHANNELS 3 Zrotation Yrotation Xrotation
						JOINT LeftForeArm
						{
							OFFSET 5.450000 0.000000 0.000000
							CHANNELS 3 Zrotation Yrotation Xrotation
							JOINT LeftHand
							{
								OFFSET 3.450000 0.000000 0.000000
								CHANNELS 3 Zrotation Yrotation Xrotation
								JOINT LeftHandIndex1
								{
									OFFSET 0.750000 0.000000 0.000000
									CHANNELS 3 Zrotation Yrotation Xrotation
									End Site
									{
										OFFSET 0.000000 0.000000 0.000000
									}
								}
							}
						}
					}
				}
				JOINT RightShoulder
				{
					OFFSET 0.000000 0.000000 0.000000
					CHANNELS 3 Zrotation Yrotation Xrotation
					JOINT RightArm
					{
						OFFSET -2.700000 1.550000 -0.730000
						CHANNELS 3 Zrotation Yrotation Xrotation
						JOINT RightForeArm
						{
							OFFSET -5.450000 0.000000 0.000000
							CHANNELS 3 Zrotation Yrotation Xrotation
							JOINT RightHand
							{
								OFFSET -3.450000 0.000000 0.000000
								CHANNELS 3 Zrotation Yrotation Xrotation
								JOINT RightHandIndex1
								{
									OFFSET -0.750000 0.000000 0.000000
									CHANNELS 3 Zrotation Yrotation Xrotation
									End Site
									{
										OFFSET 0.000000 0.000000 0.000000
									}
								}
							}
						}
					}
				}
			}
		}
	}
}
MOTION
Frames: 12
Frame Time: 0.016667
0.356300 17.210080 -9.787990 4.570057 -2.198297 -4.864596 -15.028932 11.994856 4.262761 25.486295 -0.216275 -11.933598 -28.556451 24.145862 35.979566 1.382264 11.453320 0.757808 0.013940 -0.146680 -0.182760 18.388313 -10.422768 2.828525 -12.600916 0.784592 -13.955191 6.434795 -3.287595 0.312239 -0.277528 -3.024810 3.309210 -0.176240 0.456390 0.237710 -3.949058 -0.412577 -8.828347 4.700875 -1.787222 22.812764 -8.721839 1.995379 8.951199 0.690477 -5.249669 -17.090245 -12.745523 -1.476845 43.152035 5.207570 -9.758820 -9.416300 -7.137163 -19.160598 10.182990 -7.543231 2.233820 -0.467086 10.668762 -1.933986 -0.697360 -3.935304 2.632580 0.487940 0.011580 0.059580 0.201860 6.246344 26.854058 10.997669 16.583192 11.488703 -7.881671 15.356514 49.475602 5.793284 2.033127 -1.336372 -0.132500 0.330030 0.203790 0.142110 
0.318890 17.240530 -9.775940 5.014996 -2.162465 -5.383055 -15.045529 11.840086 4.474439 26.198023 -0.345952 -12.487713 -30.766799 26.037216 37.349606 1.537225 11.941498 0.612061 0.037060 -0.120450 -0.149910 18.391696 -10.368190 2.777111 -12.937265 0.634019 -13.330203 6.532203 -3.373350 0.310012 -0.320054 -3.063945 3.293026 -0.175080 0.418630 0.243330 -3.939020 -0.354756 -8.931980 4.218215 -1.865004 23.903897 -9.263891 2.060025 8.447663 0.933462 -5.042827 -17.420277 -12.574603 -1.198142 44.285695 4.937310 -9.183880 -10.331800 -7.563198 -19.417592 10.286975 -6.272893 2.909946 -0.487694 10.258452 -2.224411 -0.698087 -3.908421 2.603301 0.521220 -0.013130 0.100110 0.198230 6.157490 27.065168 11.152000 16.363413 10.892280 -8.423467 15.205258 50.879292 5.883705 2.017747 -1.338931 -0.120450 0.326990 0.187470 0.130230 
0.246890 17.281810 -9.749240 5.932981 -2.390015 -5.763509 -15.109170 11.523047 4.888526 27.574045 -0.483015 -14.287749 -34.989134 30.218170 40.252636 1.851013 12.863218 0.354467 0.069110 -0.080030 -0.115500 18.383073 -10.210971 2.671795 -13.613721 0.504269 -12.849709 6.720145 -3.446700 0.315031 -0.360824 -3.103139 3.265013 -0.169230 0.368810 0.247500 -3.856182 -0.279890 -9.102232 2.721444 -1.539088 25.082395 -9.405801 2.309506 7.542680 1.062617 -4.852094 -17.586677 -12.438862 -1.019767 45.279747 5.051010 -8.834670 -11.220670 -7.623888 -19.282216 10.199796 -5.121635 3.352728 -0.586160 9.988361 -2.954513 -0.698939 -3.864330 2.600304 0.544790 -0.047090 0.142280 0.195080 5.962453 26.986954 11.164624 15.539818 10.067851 -8.999792 14.905320 52.894813 6.059325 2.013903 -1.366937 -0.096860 0.308220 0.161690 0.123610 
0.166950 17.317280 -9.708770 7.097216 -2.545407 -5.840315 -15.170198 11.146617 5.330933 28.876315 -0.554841 -16.653229 -40.151422 35.437084 43.048252 2.187451 13.729289 0.153062 0.097630 -0.036430 -0.096520 18.387660 -10.048106 2.549089 -14.442732 0.411647 -12.640883 6.947079 -3.525154 0.472557 -0.381822 -3.157064 3.243107 -0.155290 0.341470 0.244250 -3.800864 -0.132636 -9.253277 1.162620 -1.205475 25.734157 -9.757418 2.546160 6.981132 1.126510 -4.604781 -17.528473 -11.915854 -1.009444 45.224920 5.009760 -8.466470 -11.301620 -7.118123 -18.913507 10.093571 -4.429331 3.991298 -0.730322 9.585347 -4.774403 -0.686128 -3.808139 2.619780 0.540730 -0.059670 0.161670 0.207340 5.285361 26.616422 11.059734 15.096674 9.403553 -9.602639 14.161957 55.200325 5.950703 2.001471 -1.420394 -0.078890 0.291450 0.127480 0.126650 
0.085890 17.336570 -9.660810 8.306972 -2.520348 -5.549986 -15.262563 10.787782 5.758938 30.282825 -0.476006 -19.434682 -46.165137 41.324904 45.065111 2.458555 14.364344 0.030582 0.113610 -0.009100 -0.091300 18.372317 -9.819531 2.428417 -15.336788 0.403473 -12.591020 7.241147 -3.551593 0.407925 -0.380090 -3.219791 3.215776 -0.135140 0.338500 0.239400 -3.675157 -0.104441 -9.374493 -0.677409 -0.753628 25.651997 -9.538389 2.695202 6.773744 1.123109 -4.517198 -17.057524 -11.513961 -1.217518 43.999721 4.895470 -8.383690 -11.209680 -6.163848 -18.105945 9.749477 -4.893718 3.534982 -0.890140 9.993921 -5.485241 -0.702244 -3.802397 2.648703 0.517460 -0.052660 0.152200 0.213650 4.327250 25.886463 10.710207 14.296596 8.949302 -9.981884 13.537535 57.358921 5.883013 1.987794 -1.476045 -0.073210 0.281700 0.111240 0.130380 
0.001730 17.339350 -9.607260 9.633653 -2.523510 -4.796176 -15.370183 10.472137 6.122323 31.728321 0.026254 -22.595684 -53.187511 47.626359 45.748790 2.622177 14.649824 0.019123 0.102190 -0.018330 -0.105460 18.346721 -9.571601 2.322763 -16.188030 0.493232 -12.749964 7.164852 -3.476467 -0.027648 -0.354783 -3.277307 3.194420 -0.118920 0.380180 0.242130 -3.510128 -0.122520 -9.450078 -2.729744 -0.130761 24.638514 -9.154643 2.910601 6.860894 1.089848 -4.426364 -16.304088 -10.919774 -1.713377 41.900149 3.979740 -8.372220 -10.436410 -5.030559 -16.995129 9.212653 -5.448438 2.418417 -0.936078 10.479471 -5.219545 -0.740281 -3.868231 2.653437 0.475540 -0.008870 0.110990 0.217450 3.249560 24.879500 10.219604 13.709963 8.975622 -9.990773 12.786548 58.645771 5.663938 1.963530 -1.515879 -0.088000 0.291270 0.123180 0.135070 
-0.082000 17.344410 -9.547390 10.781380 -2.558142 -4.045570 -15.440665 10.243453 6.339343 33.143173 0.983104 -25.372717 -61.145312 53.579688 44.650557 2.669097 14.483933 0.127136 0.067180 -0.047730 -0.141230 18.339151 -9.388589 2.284486 -16.930764 0.638140 -12.715933 7.272603 -3.404848 -0.688402 -0.332314 -3.365765 3.175524 -0.114020 0.439530 0.237520 -3.417228 -0.083168 -9.499206 -4.226284 0.361392 23.549669 -9.194027 3.177628 6.799153 1.034911 -4.245893 -15.763951 -10.220942 -2.099460 40.248507 3.304830 -8.359570 -9.411150 -4.283560 -16.197252 8.766395 -5.647514 1.505595 -0.919225 10.477602 -5.065651 -0.758827 -3.943121 2.629566 0.433180 0.043270 0.062270 0.219030 2.576002 24.067127 9.927339 13.741312 8.813779 -10.120121 12.046487 60.096093 5.357690 1.932227 -1.539924 -0.112700 0.316370 0.150480 0.143110 
-0.160020 17.361930 -9.489130 11.551040 -2.785590 -3.935472 -15.477757 10.180198 6.369095 34.528520 2.296313 -26.966118 -69.379966 58.374239 42.037250 2.619717 13.955834 0.301574 0.074390 -0.036100 -0.139840 18.334467 -9.314298 2.304589 -17.286865 0.716912 -12.026049 7.247194 -3.339054 -1.470997 -0.358526 -3.456591 3.147091 -0.103320 0.443670 0.236850 -3.368237 -0.048345 -9.517248 -5.307810 0.806306 23.349294 -8.981807 3.432833 6.421511 0.982949 -4.275689 -15.540050 -10.143832 -2.078352 39.922125 3.369120 -8.270970 -9.644250 -3.719657 -15.527476 8.444782 -6.371699 1.224034 -1.068208 10.922693 -5.650097 -0.800979 -3.941261 2.632197 0.432410 0.045720 0.062240 0.223810 2.133054 23.575481 9.836679 13.578608 8.309462 -10.387806 11.045659 61.309571 4.934884 1.916570 -1.556317 -0.115430 0.323300 0.147900 0.144070 
-0.234460 17.374330 -9.434960 12.140311 -2.871648 -3.961909 -15.492297 10.251241 6.235089 35.634307 3.784295 -28.247164 -78.647726 61.625996 37.496690 2.536356 13.283521 0.503078 0.092140 -0.017180 -0.121190 18.329438 -9.321199 2.362560 -17.570099 0.777011 -11.325350 7.324872 -3.315073 -2.022784 -0.390028 -3.549674 3.105412 -0.097680 0.419570 0.238570 -3.343351 -0.039473 -9.494156 -6.105799 1.108402 23.107399 -8.980894 3.579373 6.260902 1.041293 -4.191501 -15.608767 -9.978922 -1.983753 40.165545 3.360140 -8.064470 -9.448140 -3.144278 -15.308383 8.369439 -6.826645 0.971259 -1.170061 10.928456 -5.283322 -0.788353 -3.938388 2.648844 0.430340 0.033490 0.071520 0.221390 1.471739 23.394582 9.917298 13.601544 7.762089 -10.651231 9.755859 62.276651 4.315934 1.910702 -1.588657 -0.102180 0.300180 0.131260 0.141360 
-0.297060 17.391150 -9.384000 12.349288 -2.999638 -4.075446 -15.475626 10.401554 5.971613 36.615482 5.670162 -29.541051 -89.481381 62.773362 30.718306 2.448269 12.754758 0.682373 0.084190 -0.043280 -0.114690 18.344717 -9.396144 2.462972 -17.608425 0.878171 -10.583199 7.540552 -3.318574 -2.545511 -0.415302 -3.649349 3.077309 -0.106650 0.426450 0.237500 -3.389370 -0.005301 -9.454664 -5.966554 1.114171 23.141153 -9.483197 3.613256 6.001611 1.162454 -4.254550 -15.721607 -10.039292 -1.771322 40.247894 3.178720 -7.827700 -9.127290 -3.052888 -15.234350 8.359161 -7.134828 1.567288 -1.369209 11.170182 -6.080731 -0.832301 -3.931122 2.641097 0.444920 0.036480 0.064050 0.218580 1.132348 23.421016 10.023934 13.797252 7.428584 -10.973529 7.509107 63.047502 3.198552 1.884389 -1.586088 -0.119160 0.304510 0.137660 0.128960 
-0.369710 17.412030 -9.333970 13.063018 -3.237742 -4.512766 -15.463818 10.562286 5.684285 36.855869 7.372779 -30.131937 -100.337089 60.873689 22.834471 2.472723 12.674427 0.750643 0.059900 -0.084490 -0.124000 18.343453 -9.496883 2.539999 -17.867921 0.854585 -9.816726 7.359310 -3.349769 -2.874711 -0.430909 -3.741255 3.052865 -0.120220 0.449960 0.224730 -3.398818 -0.004535 -9.382577 -6.934537 1.512234 23.391347 -9.294307 3.647691 5.776891 1.007616 -4.470555 -15.943505 -10.294657 -1.152757 40.258094 3.815090 -7.557400 -8.770270 -2.771146 -15.286824 8.472789 -8.051298 2.526465 -1.713738 11.936013 -6.807489 -0.903604 -3.928978 2.629878 0.456340 0.039030 0.046150 0.213290 1.216164 23.749395 10.213351 13.251827 7.078663 -11.118668 6.530632 63.545131 2.769181 1.876341 -1.576840 -0.146700 0.324000 0.155970 0.121550 
-0.442630 17.432940 -9.292250 13.526765 -3.520442 -4.989381 -15.461743 10.530025 5.642708 37.356747 8.628925 -30.365655 -108.679690 57.980812 16.687141 2.574681 12.765544 0.765851 0.062880 -0.081020 -0.121430 18.354329 -9.532944 2.555685 -17.931456 0.791262 -9.054451 7.304651 -3.402473 -3.014986 -0.461117 -3.808625 3.036325 -0.128800 0.443070 0.221140 -3.420064 0.069836 -9.397977 -7.615770 1.902852 23.868298 -9.155962 3.736732 5.475812 0.846880 -4.604520 -16.210783 -10.545073 -0.814133 40.790884 4.464360 -7.500160 -8.808410 -2.670968 -15.432076 8.609086 -8.315849 3.470237 -1.965356 11.839914 -7.762750 -0.911253 -3.894367 2.631690 0.462220 0.024760 0.057090 0.217410 1.480561 24.108945 10.416266 13.010740 6.770584 -11.327973 4.321837 63.517437 1.667845 1.880038 -1.562452 -0.139020 0.321930 0.146760 0.126920 
